<svg width="31" height="31" viewBox="0 0 31 31" fill="none" xmlns="http://www.w3.org/2000/svg">
<rect width="31" height="31" rx="4" fill="#1A3324"/>
<path d="M10.976 20H10.52C10.224 20 10.036 19.84 9.956 19.52L8.564 13.424H8.528L7.16 19.52C7.08 19.84 6.888 20 6.584 20H6.14C5.86 20 5.668 19.84 5.564 19.52L3.368 12.284H2.612C2.508 12.284 2.456 12.236 2.456 12.14V11.528C2.456 11.432 2.508 11.384 2.612 11.384H5.312C5.416 11.384 5.468 11.432 5.468 11.528V12.14C5.468 12.236 5.416 12.284 5.312 12.284H4.472L6.332 18.728H6.404L8.072 11.384H9.032L10.712 18.728H10.784L12.644 12.284H11.792C11.696 12.284 11.648 12.236 11.648 12.14V11.528C11.648 11.432 11.696 11.384 11.792 11.384H14.504C14.6 11.384 14.648 11.432 14.648 11.528V12.14C14.648 12.236 14.6 12.284 14.504 12.284H13.736L11.54 19.52C11.444 19.84 11.256 20 10.976 20ZM25.9667 16.88V12.284H25.0427C24.9467 12.284 24.8987 12.236 24.8987 12.14V11.528C24.8987 11.432 24.9467 11.384 25.0427 11.384H27.9347C28.0307 11.384 28.0787 11.432 28.0787 11.528V12.14C28.0787 12.236 28.0307 12.284 27.9347 12.284H27.0107V16.772C27.0107 17.852 26.7267 18.676 26.1587 19.244C25.5987 19.804 24.8027 20.084 23.7707 20.084C22.7467 20.084 21.9507 19.804 21.3827 19.244C20.8147 18.676 20.5307 17.852 20.5307 16.772V12.284H19.6187C19.5147 12.284 19.4627 12.236 19.4627 12.14V11.528C19.4627 11.432 19.5147 11.384 19.6187 11.384H22.4987C22.6027 11.384 22.6547 11.432 22.6547 11.528V12.14C22.6547 12.236 22.6027 12.284 22.4987 12.284H21.5747V16.808C21.5747 18.344 22.3107 19.112 23.7827 19.112C24.5347 19.112 25.0867 18.916 25.4387 18.524C25.7907 18.124 25.9667 17.576 25.9667 16.88Z" fill="white"/>
</svg>
